# xmcd
#
# Track frame offsets:
#	150
#	15197
#	28490
#	44393
#	60166
#	75983
#	93247
#	112914
#	125347
#	140938
#	152296
#	165576
#	184169
#	195424
#
# Disc length: 2823 seconds
#
# Revision: 1
# Processed by: cddbd v1.5.1PL0 Copyright (c) Steve Scherf et al.
# Submitted via: audiograbber 1.83.01
#
DISCID=a10b050e
DTITLE=Dennis Whitty - Sidetracked
DYEAR=2005
DGENRE=Country
TTITLE0=Sidetracked
TTITLE1=Runnin' Away From Love
TTITLE2=Let It Go
TTITLE3=Boots
TTITLE4=Walkin' Back My Way
TTITLE5=Late Night Flyers
TTITLE6=Love
TTITLE7=Don't Stop The Train
TTITLE8=Manitoba Cowboy
TTITLE9=I'm Just A Country Boy (Who Likes To Rock And Roll)
TTITLE10=Memories In Beer
TTITLE11=Country Singer
TTITLE12=Just Like The Old Man Said
TTITLE13=Out Of My Head
EXTD=www.denniswhitty.com
EXTT0=
EXTT1=
EXTT2=
EXTT3=
EXTT4=
EXTT5=
EXTT6=
EXTT7=
EXTT8=
EXTT9=
EXTT10=
EXTT11=
EXTT12=
EXTT13=
PLAYORDER=
